<?xml version="1.0" standalone="no"?>
<!DOCTYPE svg PUBLIC "-//W3C//DTD SVG 20010904//EN"
 "http://www.w3.org/TR/2001/REC-SVG-20010904/DTD/svg10.dtd">
<svg version="1.0" xmlns="http://www.w3.org/2000/svg"
 width="423.000000pt" height="423.000000pt" viewBox="0 0 423.000000 423.000000"
 preserveAspectRatio="xMidYMid meet">
<metadata>
Created by potrace 1.14, written by Peter Selinger 2001-2017
</metadata>
<g transform="translate(0.000000,423.000000) scale(0.100000,-0.100000)"
fill="#000000" stroke="none">
<path d="M2007 4154 c-1 -1 -36 -5 -77 -8 -41 -4 -97 -11 -125 -16 -27 -5 -63
-11 -80 -14 -147 -21 -380 -102 -555 -194 -102 -53 -274 -164 -335 -217 -16
-14 -51 -44 -77 -66 -54 -47 -163 -158 -204 -209 -16 -19 -31 -37 -34 -40 -19
-17 -136 -188 -177 -260 -136 -236 -210 -460 -259 -777 -2 -15 -6 -104 -8
-198 -3 -152 1 -237 20 -345 3 -19 7 -44 8 -55 8 -60 73 -299 95 -350 5 -11
26 -60 47 -109 154 -357 434 -683 774 -901 159 -102 422 -217 570 -249 240
-52 252 -54 445 -62 131 -6 319 4 405 21 14 3 51 10 84 16 141 25 344 97 498
174 397 201 703 506 903 900 90 177 166 401 190 559 3 21 7 48 10 60 22 107
27 371 9 528 -28 243 -85 439 -194 663 -219 452 -568 782 -1053 994 -48 21
-189 70 -217 76 -8 2 -42 10 -75 19 -86 22 -216 43 -315 52 -74 6 -269 12
-273 8z"/>
</g>
</svg>
